<?xml version="1.0" encoding="UTF-8" standalone="no"?>
<!-- Created with Inkscape (http://www.inkscape.org/) -->
<svg
   xmlns:dc="http://purl.org/dc/elements/1.1/"
   xmlns:cc="http://creativecommons.org/ns#"
   xmlns:rdf="http://www.w3.org/1999/02/22-rdf-syntax-ns#"
   xmlns:svg="http://www.w3.org/2000/svg"
   xmlns="http://www.w3.org/2000/svg"
   xmlns:sodipodi="http://sodipodi.sourceforge.net/DTD/sodipodi-0.dtd"
   xmlns:inkscape="http://www.inkscape.org/namespaces/inkscape"
   width="225.64949"
   height="279.45886"
   id="svg2"
   sodipodi:version="0.32"
   inkscape:version="0.46"
   sodipodi:docname="tutorial_1.svg"
   inkscape:output_extension="org.inkscape.output.svg.inkscape"
   version="1.0">
  <defs
     id="defs4">
    <inkscape:perspective
       sodipodi:type="inkscape:persp3d"
       inkscape:vp_x="0 : 526.18109 : 1"
       inkscape:vp_y="0 : 1000 : 0"
       inkscape:vp_z="744.09448 : 526.18109 : 1"
       inkscape:persp3d-origin="372.04724 : 350.78739 : 1"
       id="perspective10" />
  </defs>
  <sodipodi:namedview
     id="base"
     pagecolor="#ffffff"
     bordercolor="#666666"
     borderopacity="1.0"
     inkscape:pageopacity="0.0"
     inkscape:pageshadow="2"
     inkscape:zoom="0.98994949"
     inkscape:cx="246.6506"
     inkscape:cy="178.7279"
     inkscape:document-units="px"
     inkscape:current-layer="layer1"
     showgrid="false"
     inkscape:window-width="910"
     inkscape:window-height="723"
     inkscape:window-x="0"
     inkscape:window-y="25" />
  <metadata
     id="metadata7">
    <rdf:RDF>
      <cc:Work
         rdf:about="">
        <dc:format>image/svg+xml</dc:format>
        <dc:type
           rdf:resource="http://purl.org/dc/dcmitype/StillImage" />
      </cc:Work>
    </rdf:RDF>
  </metadata>
  <g
     inkscape:label="Livello 1"
     inkscape:groupmode="layer"
     id="layer1"
     transform="translate(-243.76238,-210.58768)">
    <path
       sodipodi:type="star"
       style="opacity:1;fill:#ff0000;fill-opacity:1;stroke:none;stroke-opacity:1"
       id="path2387"
       sodipodi:sides="5"
       sodipodi:cx="134.28571"
       sodipodi:cy="272.36218"
       sodipodi:r1="99.180313"
       sodipodi:r2="49.590153"
       sodipodi:arg1="1.3677511"
       sodipodi:arg2="1.9960696"
       inkscape:flatsided="false"
       inkscape:rounded="0"
       inkscape:randomized="0"
       d="M 154.28571,369.50504 L 113.82631,317.53514 L 48.077699,321.40211 L 85.001366,266.86335 L 61.006227,205.52767 L 124.2857,223.79076 L 175.2045,182.01626 L 177.3897,247.84222 L 232.85439,283.35984 L 170.92544,305.77944 L 154.28571,369.50504 z"
       transform="matrix(0.3599151,0,0,0.3599151,232.12495,145.07728)" />
    <path
       sodipodi:type="spiral"
       style="fill:none;fill-rule:evenodd;stroke:#ff0000;stroke-width:8;stroke-linecap:butt;stroke-linejoin:miter;stroke-miterlimit:4;stroke-dasharray:none;stroke-opacity:1"
       id="path2389"
       sodipodi:cx="214.28572"
       sodipodi:cy="626.64789"
       sodipodi:expansion="1"
       sodipodi:revolution="3"
       sodipodi:radius="108.7217"
       sodipodi:argument="-21.938566"
       sodipodi:t0="0"
       d="M 214.28572,626.64789 C 208.84212,626.36139 211.98624,619.16868 214.76191,617.60027 C 222.28379,613.34998 230.51858,620.47294 232.38096,627.60026 C 235.71232,640.34936 224.94719,651.88278 212.85717,653.79075 C 195.11457,656.59076 179.89388,641.76934 178.09524,624.74315 C 175.69795,602.04992 194.70908,583.03895 216.66664,581.40979 C 244.29799,579.35966 267.14167,602.61721 268.57144,629.50499 C 270.30308,662.0697 242.77001,688.76795 210.95243,689.98123 C 173.45652,691.41103 142.89084,659.58556 141.90476,622.83841 C 140.7663,580.41238 176.89482,545.97105 218.57138,545.21931 C 265.92694,544.36514 304.24952,584.80387 304.76192,631.40973 C 305.33675,683.69446 260.58276,725.90229 209.04769,726.1717 C 151.83401,726.4708 105.73798,677.39786 105.71429,620.93368"
       transform="matrix(0.3599151,0,0,0.3599151,207.44505,107.0291)" />
    <text
       xml:space="preserve"
       style="font-size:14.39660645px;font-style:normal;font-weight:normal;fill:#000000;fill-opacity:1;stroke:none;stroke-width:1px;stroke-linecap:butt;stroke-linejoin:miter;stroke-opacity:1;font-family:Bitstream Vera Sans"
       x="254.52895"
       y="326.87683"
       id="text3161"><tspan
         sodipodi:role="line"
         id="tspan3163"
         x="254.52895"
         y="326.87683"
         style="font-size:25.91389084px">This is a big text</tspan></text>
    <path
       style="opacity:1;fill:#ff0000;fill-opacity:1;stroke:#ff0000;stroke-width:0.35991514;stroke-miterlimit:4;stroke-dasharray:none;stroke-opacity:1"
       id="path3169"
       d="M 284.1691,421.14115 C 285.19952,420.54516 285.0368,418.90792 285.05746,417.90795 C 284.81454,415.21907 283.36182,413.05012 281.61318,411.08811 C 278.75614,408.46073 275.0396,406.80676 271.11215,406.77666 C 270.26842,406.7702 269.43139,406.9274 268.59101,407.00277 C 264.78617,407.75023 260.73874,408.96588 258.25773,412.17261 C 257.83382,412.72052 257.51944,413.34503 257.15029,413.93123 C 255.68728,417.05067 255.27311,420.7799 256.56124,424.0608 C 256.81058,424.69589 257.20416,425.26443 257.52562,425.86623 C 260.56901,430.68374 265.17883,434.08678 269.7317,437.36321 C 275.13591,440.99846 280.5199,444.64686 285.31667,449.06782 C 289.00533,452.86276 292.1359,457.32861 293.35832,462.55624 C 293.59489,463.56789 293.68934,464.60759 293.85485,465.63327 C 294.058,470.90499 293.44432,476.33017 291.76152,481.3461 C 290.87815,483.59927 289.61436,485.38375 287.48896,486.5434 C 284.71277,488.05813 285.73093,479.14198 286.14678,482.27705 L 286.14678,482.27705 C 286.28773,483.3396 288.96572,480.35325 289.03673,480.15833 C 291.49157,475.78839 292.61428,470.91307 292.22319,465.88639 C 292.08158,464.93236 292.00474,463.96644 291.79836,463.0243 C 290.70105,458.01521 287.85597,453.78649 284.31387,450.16261 C 279.54785,445.8247 274.48119,441.82543 268.93232,438.5222 C 263.99887,435.2607 258.92577,431.79866 255.36378,427.00597 C 254.96312,426.23807 254.4782,425.50855 254.16179,424.70228 C 252.60167,420.7269 253.29087,416.36196 255.11525,412.62939 C 255.5892,411.89768 255.97825,411.1034 256.53708,410.43427 C 259.44619,406.951 264.1931,405.85485 268.41734,405.00737 C 269.37166,404.92653 270.32261,404.77483 271.2803,404.76487 C 275.82907,404.71757 279.91776,406.45311 283.54971,409.08611 C 286.27896,411.4306 288.52888,414.07025 288.85783,417.80401 C 289.02844,420.3126 288.99984,422.33243 287.51904,424.49109 C 285.62405,427.25354 281.26926,422.81837 284.1691,421.14115 z" />
    <path
       style="opacity:1;fill:#ff0000;fill-opacity:1;stroke:#ff0000;stroke-width:0.35991514;stroke-miterlimit:4;stroke-dasharray:none;stroke-opacity:1"
       id="path3175"
       d="M 283.14077,421.14115 C 286.87607,419.06221 290.20285,416.28356 293.60826,413.71175 C 297.16976,411.08577 300.91866,408.5501 305.12435,407.05867 C 307.58134,406.18736 308.45507,406.19172 310.98814,405.83704 C 315.64882,405.58848 319.73405,406.10348 323.85524,408.31448 C 327.21388,410.59263 328.76946,413.99064 329.31829,417.90042 C 329.79789,422.16019 328.64995,426.08985 326.72198,429.83285 C 323.49926,434.92217 319.48692,439.44118 315.81587,444.20043 C 311.07496,450.64077 306.90924,457.47065 302.70484,464.26487 C 299.26732,469.8632 296.62991,475.83557 294.22085,481.928 C 293.95963,482.58861 292.98099,482.14468 293.30594,481.51297 L 293.30594,481.51297 C 296.30479,475.68314 299.01221,469.6932 302.35063,464.04915 C 306.46483,457.18488 310.79403,450.45034 315.13299,443.72676 C 318.23152,438.74241 321.63961,433.91112 324.2739,428.66323 C 325.69898,425.39381 326.82544,421.97906 326.2442,418.36851 C 325.71951,415.23425 324.80304,413.091 322.20232,411.10809 C 318.87347,408.90192 315.21675,407.71081 311.18039,407.71225 C 310.28565,407.76781 309.38395,407.75451 308.49615,407.87892 C 303.21865,408.6185 298.4786,411.35923 294.53588,414.8312 C 291.44215,417.64715 288.40679,420.72119 286.49071,424.49109 C 284.97288,427.47744 280.21365,422.77028 283.14077,421.14115 z" />
    <path
       style="opacity:1;fill:#ff0000;fill-opacity:1;stroke:#ff0000;stroke-width:0.35991514;stroke-miterlimit:4;stroke-dasharray:none;stroke-opacity:1"
       id="path3177"
       d="M 303.03145,431.60669 C 302.33803,432.80492 300.82803,432.91773 299.67974,433.44001 C 298.82514,434.08532 298.72162,435.38756 299.24109,436.27434 C 298.84371,437.86923 297.29522,438.70443 296.26719,439.8556 C 292.8285,443.33499 288.63256,445.9339 284.34423,448.22951 C 282.07645,449.42945 280.13081,451.14362 278.43203,453.05046 C 276.89912,454.6774 275.48084,456.48045 273.51536,457.61566 C 270.74289,459.31306 267.61002,460.61159 265.27257,462.97708 C 263.00331,465.37734 260.4678,467.51794 258.22201,469.93765 C 257.59979,470.69809 257.94948,471.96538 258.88471,472.27935 C 259.89278,472.69075 260.85773,471.94725 261.62858,471.3802 C 265.72468,468.21574 270.14346,465.32595 273.41193,461.24401 C 275.02904,459.323 276.59893,457.30092 278.70338,455.88125 C 281.34027,453.89446 284.15618,452.1331 286.57854,449.87387 C 289.21839,447.50242 291.75139,444.95552 294.82904,443.14033 C 298.33918,440.84538 301.92075,438.62983 305.17969,435.98191 C 305.55989,435.36969 305.00952,434.68747 304.72072,434.15297 C 304.15315,433.31217 303.6482,432.40029 303.05394,431.59544 L 303.03145,431.60669 z" />
    <path
       style="opacity:1;fill:#ff0000;fill-opacity:1;stroke:#ff0000;stroke-width:0.35991514;stroke-miterlimit:4;stroke-dasharray:none;stroke-opacity:1"
       id="path3179"
       d="M 255.44392,454.71999 C 253.87023,454.91733 252.70228,456.40568 252.5196,457.92549 C 253.0705,459.15121 254.5155,459.38305 255.65762,459.7588 C 258.7941,460.78459 262.11661,461.39208 265.42202,461.05912 C 267.05328,460.91317 268.65483,460.52778 270.24813,460.16093 C 271.95086,459.71547 273.68346,459.16901 275.12224,458.12866 C 275.45302,457.93799 275.51115,457.27163 275.00474,457.32937 C 274.45903,457.43477 274.11719,457.97239 273.58301,458.13957 C 271.15809,459.35232 268.48428,460.1385 265.76796,460.25102 C 263.11673,460.29324 260.56747,459.23699 258.44696,457.70054 C 257.65927,457.25668 256.89751,456.62177 256.69237,455.69851 C 256.48206,455.20061 256.09064,454.53199 255.44392,454.71999 z" />
    <path
       style="opacity:1;fill:#ff0000;fill-opacity:1;stroke:#ff0000;stroke-width:0.35991514;stroke-miterlimit:4;stroke-dasharray:none;stroke-opacity:1"
       id="path3181"
       d="M 278.52348,454.02266 C 277.01918,454.3978 276.23926,455.91393 275.77769,457.26695 C 273.83161,462.1407 273.68568,467.46016 272.52489,472.52977 C 271.82679,475.92359 271.07997,479.49211 272.0191,482.91607 C 272.31339,483.92996 272.85094,485.10024 273.93456,485.4365 C 274.99598,485.47407 275.77831,483.93294 274.90701,483.20213 C 273.67323,481.64632 272.88127,479.666 273.06557,477.65843 C 273.0083,473.62137 274.23768,469.73131 274.922,465.78847 C 275.45939,463.23626 275.96624,460.58078 277.3974,458.35471 C 278.19422,457.30653 279.44311,456.59105 279.97943,455.36297 C 280.04749,454.59568 279.28043,453.89689 278.52348,454.02266 z" />
    <path
       style="opacity:1;fill:#ff0000;fill-opacity:1;stroke:#ff0000;stroke-width:0.35991514;stroke-miterlimit:4;stroke-dasharray:none;stroke-opacity:1"
       id="path3187"
       d="M 244.41027,462.31195 C 243.58942,462.7169 243.94793,464.00782 244.72007,464.25852 C 246.5975,465.17931 248.39391,466.27358 250.36711,466.99031 C 254.06006,468.46226 258.00029,469.4334 261.98713,469.48724 C 264.02449,469.13247 265.50354,467.47119 266.5338,465.78738 C 266.51255,465.18075 265.70892,465.36819 265.38657,465.60743 C 263.39057,466.40253 261.20744,466.37037 259.09981,466.22883 C 257.06415,466.15599 255.01191,466.11053 253.02035,465.63479 C 250.25727,465.0497 247.75087,463.69751 245.25828,462.42801 C 244.9848,462.34311 244.69905,462.24076 244.41027,462.31195 z" />
    <path
       style="opacity:1;fill:#ff0000;fill-opacity:1;stroke:#ff0000;stroke-width:0.35991514;stroke-miterlimit:4;stroke-dasharray:none;stroke-opacity:1"
       id="path3191"
       d="M 266.03892,465.30375 C 264.60221,465.49058 263.45202,466.50573 262.42161,467.44749 C 261.01313,469.05756 260.96436,471.30549 260.68826,473.31688 C 259.97211,478.51212 260.40912,483.87185 261.95797,488.8773 C 263.03468,490.51411 265.9983,490.02359 266.46632,488.11337 C 266.54439,486.75679 265.29201,485.88961 264.86517,484.70091 C 262.70245,480.48184 262.15204,475.56052 262.78595,470.89859 C 263.01941,469.49852 263.68614,468.11858 264.88017,467.29475 C 265.51181,466.74825 266.23178,466.30093 266.78125,465.66366 C 266.77767,465.28036 266.31354,465.27769 266.03892,465.30375 z" />
    <text
       xml:space="preserve"
       style="font-size:14.39660645px;font-style:normal;font-weight:normal;fill:#000000;fill-opacity:1;stroke:none;stroke-width:1px;stroke-linecap:butt;stroke-linejoin:miter;stroke-opacity:1;font-family:Bitstream Vera Sans"
       x="262.77698"
       y="441.96622"
       id="text2383"><tspan
         sodipodi:role="line"
         id="tspan2385"
         x="262.77698"
         y="441.96622">{\huge No, this is a big text}</tspan></text>
    <text
       xml:space="preserve"
       style="font-size:14.39660645px;font-style:normal;font-weight:normal;fill:#000000;fill-opacity:1;stroke:none;stroke-width:1px;stroke-linecap:butt;stroke-linejoin:miter;stroke-opacity:1;font-family:Bitstream Vera Sans"
       x="267.91397"
       y="249.56558"
       id="text3193"><tspan
         sodipodi:role="line"
         id="tspan3195"
         x="267.91397"
         y="249.56558">Hello!</tspan></text>
  </g>
</svg>
